<?xml version="1.0" standalone="no"?>
<!DOCTYPE svg PUBLIC "-//W3C//DTD SVG 20010904//EN"
 "http://www.w3.org/TR/2001/REC-SVG-20010904/DTD/svg10.dtd">
<svg version="1.0" xmlns="http://www.w3.org/2000/svg"
 width="512.000000pt" height="512.000000pt" viewBox="0 0 512.000000 512.000000"
 preserveAspectRatio="xMidYMid meet">
<metadata>
Created by potrace 1.14, written by Peter Selinger 2001-2017
</metadata>
<g transform="translate(0.000000,512.000000) scale(0.100000,-0.100000)"
fill="#000000" stroke="none">
<path d="M3170 4984 c-96 -74 -174 -139 -172 -145 2 -9 286 -400 497 -684 98
-133 307 -417 355 -484 19 -27 120 -165 225 -308 104 -142 203 -277 220 -300
16 -23 34 -42 38 -42 7 -1 320 231 351 259 9 9 17 -2 -319 455 -132 179 -250
340 -262 358 -20 29 -654 892 -706 961 -55 72 -33 79 -227 -70z"/>
<path d="M2420 4273 c-52 -64 -104 -128 -115 -141 -11 -14 -32 -40 -48 -58
l-27 -32 57 -50 c32 -28 137 -117 233 -198 96 -82 324 -274 505 -428 410 -348
497 -421 610 -516 50 -41 95 -80 100 -86 6 -6 38 -34 72 -62 34 -28 72 -60 85
-72 13 -12 33 -29 46 -37 27 -19 13 -32 162 152 57 72 114 141 127 154 l22 24
-37 32 c-20 18 -89 76 -152 130 -63 53 -139 118 -168 143 -29 25 -65 54 -80
66 -15 11 -29 23 -32 27 -3 3 -32 29 -65 56 -33 28 -184 155 -336 284 -151
129 -297 252 -323 274 -27 22 -58 49 -71 60 -12 11 -91 78 -176 150 -85 71
-156 132 -159 135 -3 3 -30 25 -60 50 -30 25 -56 48 -58 53 -7 16 -20 3 -112
-110z"/>
<path d="M1761 3238 c-50 -111 -91 -205 -91 -210 0 -5 42 -29 93 -52 50 -24
142 -67 202 -96 61 -29 137 -65 170 -80 33 -15 114 -54 180 -85 126 -60 236
-112 370 -175 112 -52 235 -111 414 -196 84 -41 155 -74 156 -74 2 0 65 -30
141 -66 178 -85 304 -144 308 -144 2 0 18 33 36 73 18 39 51 110 73 157 70
152 77 169 77 178 0 5 -28 21 -62 37 -81 37 -253 118 -447 211 -84 41 -155 74
-156 74 -2 0 -87 41 -190 90 -103 50 -188 90 -190 90 -1 0 -78 36 -171 81
-158 76 -206 99 -389 184 -38 18 -142 67 -230 110 -88 42 -170 81 -182 85 -20
8 -27 -4 -112 -192z"/>
<path d="M1466 2388 c-3 -7 -10 -38 -16 -68 -6 -30 -25 -118 -41 -195 -16 -77
-29 -147 -29 -156 0 -16 6 -18 99 -35 12 -3 53 -12 90 -20 36 -9 75 -18 86
-20 11 -2 55 -11 98 -20 42 -8 90 -17 105 -20 15 -3 35 -7 44 -10 9 -3 25 -7
35 -9 201 -42 433 -91 523 -111 63 -14 135 -29 160 -34 25 -5 54 -11 65 -14
46 -10 272 -58 290 -62 11 -2 29 -6 40 -8 67 -15 515 -109 537 -113 22 -4 28
-1 32 18 7 31 52 242 72 338 8 40 12 77 7 81 -4 5 -44 15 -88 24 -44 8 -186
38 -315 66 -129 28 -255 55 -280 60 -25 5 -99 21 -165 35 -66 15 -129 28 -140
31 -11 2 -29 6 -40 8 -11 3 -137 29 -280 60 -143 30 -300 64 -350 75 -49 11
-103 22 -120 25 -49 9 -68 13 -110 24 -22 6 -53 13 -70 15 -16 3 -50 10 -75
15 -136 32 -160 35 -164 20z"/>
<path d="M429 1813 c-4 -15 -3 -1758 0 -1800 1 -10 413 -13 2025 -13 l2024 0
-2 912 -1 913 -222 3 -223 2 -1 -37 c0 -21 0 -329 -1 -685 l0 -648 -27 -1
c-14 0 -722 -1 -1573 -2 l-1548 -2 -1 30 c0 17 -1 326 -1 687 l-1 657 -222 1
c-206 0 -223 -1 -226 -17z"/>
<path d="M1329 1363 c-6 -43 -2 -436 5 -440 7 -5 2112 -8 2224 -4 l22 1 0 225
0 225 -1125 0 c-619 0 -1125 -3 -1126 -7z"/>
</g>
</svg>
